<svg width="248" height="44" viewBox="0 0 248 44" fill="none" xmlns="http://www.w3.org/2000/svg">
<rect width="44" height="44" rx="11.5077" fill="url(#paint0_linear_894_10163)"/>
<rect x="0.253846" y="0.253846" width="43.4923" height="43.4923" rx="11.2538" stroke="url(#paint1_linear_894_10163)" stroke-opacity="0.4" stroke-width="0.507692"/>
<rect x="0.253846" y="0.253846" width="43.4923" height="43.4923" rx="11.2538" stroke="url(#paint2_linear_894_10163)" stroke-opacity="0.3" stroke-width="0.507692"/>
<rect x="0.253846" y="0.253846" width="43.4923" height="43.4923" rx="11.2538" stroke="white" stroke-opacity="0.2" stroke-width="0.507692"/>
<g filter="url(#filter0_d_894_10163)">
<path d="M7.81536 23.7738C7.27867 23.238 7.27867 22.3693 7.81536 21.8335L19.9625 9.70654C20.4992 9.17074 21.3693 9.17074 21.906 9.70654L35.0249 22.8036L24.0925 33.7178C22.3919 35.4156 19.4766 35.4156 17.776 33.7178L7.81536 23.7738Z" fill="url(#paint3_linear_894_10163)"/>
<path d="M18.0189 21.3484C17.4822 20.8126 17.4823 19.9439 18.0189 19.4081L26.8987 10.5431C27.4354 10.0073 28.3055 10.0073 28.8422 10.5431L34.9158 16.6066C36.6164 18.3043 36.6164 21.2148 34.9158 22.9126L24.0925 33.7178C25.7931 32.0201 25.7931 29.1096 24.0925 27.4118L18.0189 21.3484Z" fill="url(#paint4_linear_894_10163)"/>
</g>
<path fill-rule="evenodd" clip-rule="evenodd" d="M103.491 14.7292C105.38 14.7292 107.098 15.2185 108.645 16.1975C110.205 17.1766 111.444 18.4939 112.361 20.1486C113.292 21.8033 113.757 23.6372 113.757 25.6505C113.757 27.1535 113.491 28.5603 112.957 29.8703C112.423 31.1802 111.684 32.3383 110.739 33.3449C109.809 34.3376 108.72 35.1169 107.475 35.6822C106.243 36.2476 104.915 36.5303 103.491 36.5303C101.602 36.5303 99.8777 36.041 98.3173 35.062C96.7706 34.0829 95.5319 32.7727 94.6011 31.1318C93.684 29.4771 93.2252 27.6499 93.2252 25.6505C93.2252 24.1336 93.4924 22.7202 94.0262 21.4102C94.5601 20.0864 95.2921 18.9279 96.2229 17.9351C97.1674 16.9284 98.2627 16.1426 99.5083 15.5772C100.754 15.0119 102.082 14.7292 103.491 14.7292ZM103.491 19.776C102.506 19.776 101.616 20.0448 100.822 20.5826C100.028 21.1203 99.3988 21.8375 98.9334 22.7337C98.468 23.63 98.2353 24.6024 98.2353 25.6505C98.2353 26.7398 98.4748 27.7256 98.9538 28.6081C99.4329 29.4907 100.069 30.1943 100.863 30.7183C101.671 31.2284 102.547 31.4834 103.491 31.4834C104.49 31.4834 105.387 31.2146 106.181 30.6768C106.975 30.1391 107.598 29.4288 108.05 28.5462C108.515 27.6637 108.748 26.6984 108.748 25.6505C108.748 24.5749 108.508 23.5958 108.029 22.7132C107.563 21.8169 106.927 21.1066 106.119 20.5826C105.325 20.0449 104.449 19.776 103.491 19.776Z" fill="#03101E"/>
<path fill-rule="evenodd" clip-rule="evenodd" d="M142.852 14.7292C144.454 14.7292 145.919 15.074 147.246 15.7635C148.588 16.4392 149.724 17.37 150.654 18.5559C151.585 19.7418 152.263 21.093 152.687 22.6098C153.111 24.1266 153.208 25.7124 152.975 27.367H137.966C138.157 28.1392 138.472 28.8357 138.91 29.4562C139.348 30.0629 139.902 30.5528 140.573 30.9251C141.244 31.2836 142.004 31.4697 142.852 31.4834C143.728 31.4972 144.522 31.2901 145.234 30.8626C145.959 30.4214 146.562 29.8286 147.041 29.0841L152.154 30.2838C151.319 32.1178 150.073 33.6206 148.416 34.7927C146.76 35.951 144.906 36.5303 142.852 36.5303C140.964 36.5303 139.239 36.0409 137.678 35.062C136.132 34.0829 134.892 32.7656 133.962 31.1108C133.045 29.4562 132.586 27.6289 132.586 25.6295C132.586 24.1265 132.853 22.7201 133.387 21.4102C133.921 20.0864 134.653 18.9279 135.584 17.9351C136.528 16.9285 137.623 16.1426 138.869 15.5772C140.115 15.0118 141.443 14.7292 142.852 14.7292ZM142.852 19.1347C142.031 19.1347 141.271 19.3347 140.573 19.7346C139.875 20.1206 139.28 20.6516 138.787 21.3273C138.308 21.9891 137.98 22.7407 137.802 23.5818H147.903C147.753 22.7545 147.431 22.0101 146.938 21.3483C146.459 20.6726 145.864 20.1344 145.152 19.7346C144.44 19.3347 143.674 19.1347 142.852 19.1347Z" fill="#03101E"/>
<path fill-rule="evenodd" clip-rule="evenodd" d="M197.989 24.8491C197.949 26.2366 197.613 28.455 197.008 29.8676C196.447 31.1775 195.673 32.3357 194.688 33.3422C193.689 34.335 192.539 35.1143 191.238 35.6796C189.999 36.2185 188.672 36.4998 187.259 36.5251C187.181 36.5281 187.104 36.5303 187.025 36.5303C185.533 36.5303 184.136 36.2476 182.836 35.6822C181.536 35.1169 180.386 34.3377 179.387 33.3449C178.401 32.3383 177.628 31.1801 177.067 29.8703C176.505 28.5603 176.224 27.1535 176.224 25.6505C176.224 24.1474 176.505 22.7407 177.067 21.4307C177.628 20.1207 178.401 18.9693 179.387 17.9765C180.386 16.9699 181.536 16.184 182.836 15.6187C184.136 15.0533 185.533 14.7706 187.025 14.7706H187.049L187.05 14.768C188.138 14.768 189.176 14.9189 190.162 15.2198C190.382 15.2789 190.586 15.3392 190.771 15.4009C191.573 15.6696 192.642 16.207 192.979 16.4756V7.48002H197.989V24.8491ZM187.086 19.6107C186.032 19.6107 185.067 19.8862 184.191 20.4378C183.329 20.9756 182.638 21.6998 182.117 22.6098C181.611 23.52 181.358 24.5335 181.358 25.6505C181.358 26.7674 181.618 27.781 182.138 28.6911C182.658 29.6012 183.349 30.3248 184.212 30.8626C185.06 31.3835 185.986 31.6512 186.988 31.6676C188.028 31.6676 188.987 31.3982 189.863 30.8605C190.248 30.6201 190.599 30.3415 190.916 30.0266C191.281 29.6379 191.593 29.1931 191.85 28.6911C192.315 27.7672 192.547 26.7536 192.547 25.6505C192.547 24.5336 192.315 23.5199 191.85 22.6098C191.546 22.0061 191.162 21.4854 190.7 21.0465C190.447 20.8217 190.175 20.6173 189.883 20.4351C189.071 19.9238 188.182 19.6501 187.217 19.6128C187.174 19.6119 187.13 19.6107 187.086 19.6107Z" fill="#03101E"/>
<path fill-rule="evenodd" clip-rule="evenodd" d="M71.0342 14.6441C72.4478 14.6694 73.7745 14.9507 75.014 15.4896C76.3144 16.0549 77.4642 16.8341 78.4634 17.827C79.4488 18.8335 80.2221 19.9917 80.7833 21.3016C81.3885 22.7141 81.7248 24.9325 81.7645 26.3201V35.9494H76.7544V34.6936C76.4174 34.9622 75.3482 35.4996 74.5462 35.7683C74.362 35.83 74.1572 35.8903 73.9379 35.9494C72.9513 36.2503 71.9139 36.4012 70.8253 36.4012L70.8248 36.3986H70.8003C69.3082 36.3986 67.9119 36.1159 66.6115 35.5505C65.3112 34.9852 64.1614 34.1993 63.1622 33.1927C62.1767 32.1999 61.4034 31.0485 60.8422 29.7385C60.281 28.4285 60 27.0218 60 25.5187C60 24.0157 60.281 22.6089 60.8422 21.2989C61.4034 19.9891 62.1767 18.8309 63.1622 17.8243C64.1614 16.8315 65.3112 16.0523 66.6115 15.4869C67.9119 14.9216 69.3082 14.6389 70.8003 14.6389C70.8792 14.6389 70.9571 14.6411 71.0342 14.6441ZM70.7637 19.5015C69.7612 19.518 68.8358 19.7857 67.9874 20.3066C67.1251 20.8444 66.4336 21.568 65.9134 22.4781C65.3933 23.3882 65.1333 24.4018 65.1333 25.5187C65.1333 26.6357 65.3866 27.6492 65.893 28.5593C66.4132 29.4694 67.1042 30.1936 67.9665 30.7314C68.8426 31.283 69.8079 31.5585 70.8619 31.5585C70.9058 31.5585 70.9494 31.5573 70.9929 31.5564C71.958 31.5191 72.8469 31.2454 73.6591 30.734C73.9511 30.5519 74.2229 30.3475 74.4757 30.1227C74.9376 29.6838 75.3214 29.163 75.6255 28.5593C76.0908 27.6493 76.3231 26.6356 76.3231 25.5187C76.3231 24.4156 76.0909 23.402 75.6255 22.4781C75.3687 21.9761 75.0569 21.5313 74.6919 21.1426C74.3747 20.8276 74.0238 20.5491 73.6382 20.3087C72.7622 19.771 71.8039 19.5015 70.7637 19.5015Z" fill="#03101E"/>
<path d="M123.245 14.3702C126.251 14.3703 129.305 15.6838 130.966 18.2798L127.002 20.6377C125.883 18.7044 122.385 17.8334 120.74 19.5619C118.852 21.6366 122.254 22.7767 123.628 23.237C125.572 23.8882 127.763 24.5868 129.348 25.9596C131.516 27.5914 131.355 31.2362 129.898 33.2682C129.173 34.2611 128.235 35.0264 127.085 35.5642C124.514 36.7523 121.363 36.6148 118.852 35.3369C117.483 34.6613 116.401 33.7027 115.607 32.4616L119.571 30.1038C120.69 32.0371 124.188 32.9081 125.833 31.1796C127.721 29.1049 124.319 27.9648 122.945 27.5045C121.001 26.8532 118.81 26.1545 117.225 24.7814C115.057 23.1494 115.218 19.5051 116.675 17.4733C118.193 15.3951 120.725 14.3702 123.245 14.3702Z" fill="#03101E"/>
<path d="M164.517 15.1789C166.826 15.1446 169.118 16.157 170.79 17.7314C171.707 18.6112 172.439 19.6747 172.944 20.8439C173.52 22.1794 173.672 23.6451 173.782 25.0795V36.0249H168.745V25.1036C168.691 23.5749 168.305 22.8056 168.089 22.3863C167.704 21.6382 167.059 21.003 166.334 20.5873C165.245 20.0007 163.579 20.0032 162.517 20.6482C161.845 21.0642 161.218 21.7052 160.867 22.3873C160.651 22.8066 160.265 23.576 160.211 25.1047V36.0265H155.174V25.0811C155.284 23.6467 155.436 22.181 156.012 20.8455C156.486 19.7476 157.161 18.7353 158.003 17.8884C159.704 16.2115 162.11 15.1101 164.517 15.1789Z" fill="#03101E"/>
<path d="M90.4134 35.9924H85.4039V15.308H90.4134V35.9924Z" fill="#03101E"/>
<path d="M87.929 7.46875C88.6545 7.46875 89.2638 7.71704 89.7566 8.21342C90.263 8.70984 90.5163 9.32353 90.5163 10.0544C90.5163 10.799 90.2697 11.4194 89.7769 11.9158C89.2842 12.3984 88.6753 12.64 87.9499 12.64C87.2107 12.64 86.5876 12.3984 86.0811 11.9158C85.5748 11.4194 85.3219 10.7989 85.3219 10.0544C85.3219 9.32358 85.5747 8.70982 86.0811 8.21342C86.5875 7.71705 87.2037 7.4688 87.929 7.46875Z" fill="#03101E"/>
<path d="M225.844 37.0668C223.477 37.0668 221.399 36.4892 219.61 35.334C217.835 34.1788 216.454 32.6291 215.468 30.685C214.482 28.7268 213.989 26.5572 213.989 24.1763V6.93262H219.145V24.1763C219.145 25.5851 219.406 26.8812 219.927 28.0646C220.462 29.2339 221.223 30.1708 222.209 30.8752C223.209 31.5655 224.421 31.9106 225.844 31.9106C227.281 31.9106 228.492 31.5655 229.479 30.8752C230.465 30.1708 231.211 29.2339 231.719 28.0646C232.24 26.8812 232.5 25.5851 232.5 24.1763V6.93262H237.657V24.1763C237.657 25.9655 237.375 27.642 236.811 29.2057C236.248 30.7554 235.445 32.122 234.402 33.3053C233.36 34.4887 232.113 35.4115 230.662 36.0736C229.225 36.7358 227.619 37.0668 225.844 37.0668Z" fill="#03101E"/>
<path d="M242.431 36.5174V6.93262H247.587V36.5174H242.431Z" fill="#03101E"/>
<defs>
<filter id="filter0_d_894_10163" x="5.03446" y="7.87766" width="33.5351" height="30.4433" filterUnits="userSpaceOnUse" color-interpolation-filters="sRGB">
<feFlood flood-opacity="0" result="BackgroundImageFix"/>
<feColorMatrix in="SourceAlpha" type="matrix" values="0 0 0 0 0 0 0 0 0 0 0 0 0 0 0 0 0 0 127 0" result="hardAlpha"/>
<feOffset dy="0.951351"/>
<feGaussianBlur stdDeviation="1.18919"/>
<feComposite in2="hardAlpha" operator="out"/>
<feColorMatrix type="matrix" values="0 0 0 0 0.0117647 0 0 0 0 0.0627451 0 0 0 0 0.117647 0 0 0 0.15 0"/>
<feBlend mode="normal" in2="BackgroundImageFix" result="effect1_dropShadow_894_10163"/>
<feBlend mode="normal" in="SourceGraphic" in2="effect1_dropShadow_894_10163" result="shape"/>
</filter>
<linearGradient id="paint0_linear_894_10163" x1="22" y1="0" x2="22" y2="44" gradientUnits="userSpaceOnUse">
<stop stop-color="#4DB2FF"/>
<stop offset="1" stop-color="#148DFF"/>
</linearGradient>
<linearGradient id="paint1_linear_894_10163" x1="0" y1="0" x2="22" y2="22" gradientUnits="userSpaceOnUse">
<stop stop-color="white"/>
<stop offset="1" stop-color="white" stop-opacity="0"/>
</linearGradient>
<linearGradient id="paint2_linear_894_10163" x1="44" y1="44" x2="22" y2="22" gradientUnits="userSpaceOnUse">
<stop stop-color="white"/>
<stop offset="1" stop-color="white" stop-opacity="0"/>
</linearGradient>
<linearGradient id="paint3_linear_894_10163" x1="-2.74689" y1="-0.838136" x2="32.1769" y2="34.1438" gradientUnits="userSpaceOnUse">
<stop stop-color="white"/>
<stop offset="1" stop-color="#4DB2FF"/>
</linearGradient>
<linearGradient id="paint4_linear_894_10163" x1="32.9723" y1="14.6663" x2="19.014" y2="28.6478" gradientUnits="userSpaceOnUse">
<stop stop-color="#EAF4FA"/>
<stop offset="1" stop-color="white"/>
</linearGradient>
</defs>
</svg>
